<?xml version="1.0" encoding="UTF-8"?>
<!DOCTYPE svg PUBLIC "-//W3C//DTD SVG 1.1//EN" "http://www.w3.org/Graphics/SVG/1.1/DTD/svg11.dtd">
<svg xmlns="http://www.w3.org/2000/svg" version="1.1" width="200px" height="200px" style="shape-rendering:geometricPrecision; text-rendering:geometricPrecision; image-rendering:optimizeQuality; fill-rule:evenodd; clip-rule:evenodd" xmlns:xlink="http://www.w3.org/1999/xlink">
<g><path style="opacity:0.999" fill="#2a61f1" d="M 83.5,-0.5 C 94.1667,-0.5 104.833,-0.5 115.5,-0.5C 138.327,3.91187 157.66,14.5785 173.5,31.5C 173.911,34.2763 173.078,34.943 171,33.5C 170.05,34.0223 169.216,34.689 168.5,35.5C 167.11,33.7971 165.61,33.1304 164,33.5C 162.013,37.3673 161.513,37.3673 162.5,33.5C 161.635,32.4173 160.635,32.2506 159.5,33C 159.833,33.3333 160.167,33.6667 160.5,34C 158.402,34.0139 156.569,33.8472 155,33.5C 153.149,35.7811 151.482,35.7811 150,33.5C 148.84,35.797 147.84,35.4637 147,32.5C 146.25,33.1258 145.416,33.6258 144.5,34C 144.833,34.3333 145.167,34.6667 145.5,35C 143.667,34.8333 141.833,34.6667 140,34.5C 138.913,36.9316 138.413,36.5983 138.5,33.5C 135.198,34.1019 132.031,34.1019 129,33.5C 127.488,35.9574 126.154,35.9574 125,33.5C 122.577,35.9938 120.244,35.9938 118,33.5C 117.296,36.9464 115.963,36.9464 114,33.5C 112.172,35.8073 110.506,35.474 109,32.5C 108,33.8333 107,35.1667 106,36.5C 105.581,35.3279 104.915,34.3279 104,33.5C 103,34.5 102,35.5 101,36.5C 99.6667,33.8333 98.3333,33.8333 97,36.5C 95.6093,34.2849 93.9426,34.2849 92,36.5C 91.7811,35.062 91.2811,33.7287 90.5,32.5C 89.4937,32.9377 89.4937,33.6043 90.5,34.5C 87.9065,37.0989 86.4065,36.7656 86,33.5C 85.6667,34.1667 85.3333,34.8333 85,35.5C 84.5814,34.3279 83.9147,33.3279 83,32.5C 82.3005,34.032 81.1338,35.032 79.5,35.5C 79.0024,34.3966 78.6691,33.3966 78.5,32.5C 76.6503,33.2418 75.9836,34.2418 76.5,35.5C 75.5224,35.0233 74.6891,34.3567 74,33.5C 73.15,34.4239 72.15,34.4239 71,33.5C 70.0497,34.0223 69.2164,34.689 68.5,35.5C 67.1097,33.7971 65.6097,33.1304 64,33.5C 62.0125,37.3673 61.5125,37.3673 62.5,33.5C 61.635,32.4173 60.635,32.2506 59.5,33C 59.8333,33.3333 60.1667,33.6667 60.5,34C 58.402,34.0139 56.5687,33.8472 55,33.5C 53.149,35.7811 51.4823,35.7811 50,33.5C 48.8403,35.797 47.8403,35.4637 47,32.5C 46.2496,33.1258 45.4162,33.6258 44.5,34C 44.8333,34.3333 45.1667,34.6667 45.5,35C 43.6667,34.8333 41.8333,34.6667 40,34.5C 38.9125,36.9316 38.4125,36.5983 38.5,33.5C 35.198,34.1019 32.0313,34.1019 29,33.5C 26.4475,36.1941 25.2808,35.5274 25.5,31.5C 41.3397,14.5785 60.673,3.91187 83.5,-0.5 Z"/></g>
<g><path style="opacity:0.999" fill="#275dee" d="M 25.5,31.5 C 25.2808,35.5274 26.4475,36.1941 29,33.5C 32.0313,34.1019 35.198,34.1019 38.5,33.5C 38.4125,36.5983 38.9125,36.9316 40,34.5C 41.8333,34.6667 43.6667,34.8333 45.5,35C 45.1667,34.6667 44.8333,34.3333 44.5,34C 45.4162,33.6258 46.2496,33.1258 47,32.5C 47.8403,35.4637 48.8403,35.797 50,33.5C 51.4823,35.7811 53.149,35.7811 55,33.5C 56.5687,33.8472 58.402,34.0139 60.5,34C 60.1667,33.6667 59.8333,33.3333 59.5,33C 60.635,32.2506 61.635,32.4173 62.5,33.5C 61.5125,37.3673 62.0125,37.3673 64,33.5C 65.6097,33.1304 67.1097,33.7971 68.5,35.5C 69.2164,34.689 70.0497,34.0223 71,33.5C 72.15,34.4239 73.15,34.4239 74,33.5C 74.6891,34.3567 75.5224,35.0233 76.5,35.5C 75.9836,34.2418 76.6503,33.2418 78.5,32.5C 78.6691,33.3966 79.0024,34.3966 79.5,35.5C 81.1338,35.032 82.3005,34.032 83,32.5C 83.9147,33.3279 84.5814,34.3279 85,35.5C 85.3333,34.8333 85.6667,34.1667 86,33.5C 86.4065,36.7656 87.9065,37.0989 90.5,34.5C 89.4937,33.6043 89.4937,32.9377 90.5,32.5C 91.2811,33.7287 91.7811,35.062 92,36.5C 93.9426,34.2849 95.6093,34.2849 97,36.5C 98.3333,33.8333 99.6667,33.8333 101,36.5C 102,35.5 103,34.5 104,33.5C 104.915,34.3279 105.581,35.3279 106,36.5C 107,35.1667 108,33.8333 109,32.5C 110.506,35.474 112.172,35.8073 114,33.5C 115.963,36.9464 117.296,36.9464 118,33.5C 120.244,35.9938 122.577,35.9938 125,33.5C 126.154,35.9574 127.488,35.9574 129,33.5C 132.031,34.1019 135.198,34.1019 138.5,33.5C 138.413,36.5983 138.913,36.9316 140,34.5C 141.833,34.6667 143.667,34.8333 145.5,35C 145.167,34.6667 144.833,34.3333 144.5,34C 145.416,33.6258 146.25,33.1258 147,32.5C 147.84,35.4637 148.84,35.797 150,33.5C 151.482,35.7811 153.149,35.7811 155,33.5C 156.569,33.8472 158.402,34.0139 160.5,34C 160.167,33.6667 159.833,33.3333 159.5,33C 160.635,32.2506 161.635,32.4173 162.5,33.5C 161.513,37.3673 162.013,37.3673 164,33.5C 165.61,33.1304 167.11,33.7971 168.5,35.5C 169.216,34.689 170.05,34.0223 171,33.5C 173.078,34.943 173.911,34.2763 173.5,31.5C 184.78,43.3838 192.447,57.3838 196.5,73.5C 195.12,75.6068 193.62,76.9402 192,77.5C 191.418,74.3323 190.418,73.999 189,76.5C 188.026,74.1224 187.359,74.4557 187,77.5C 186.333,76.8333 185.667,76.1667 185,75.5C 184.282,76.4506 183.449,76.6172 182.5,76C 183.696,75.3457 183.696,74.8457 182.5,74.5C 180.21,76.967 178.043,76.967 176,74.5C 175.333,75.8333 174.333,76.8333 173,77.5C 171.934,75.9005 170.434,74.9005 168.5,74.5C 168.089,75.2624 167.923,76.2624 168,77.5C 167,76.5 166,75.5 165,74.5C 162.598,77.2581 160.598,76.9248 159,73.5C 158.167,74.5 157.333,75.5 156.5,76.5C 154.786,75.3915 154.119,76.0582 154.5,78.5C 139.787,49.1434 116.12,37.3101 83.5,43C 54.6666,53.3387 40.6666,73.8387 41.5,104.5C 40.7677,103.192 39.9344,101.858 39,100.5C 37.6054,101.815 36.6054,101.481 36,99.5C 35,100.5 34,101.5 33,102.5C 31.4279,100.411 29.5945,100.411 27.5,102.5C 27.3309,101.603 26.9976,100.603 26.5,99.5C 24.7583,101.973 22.925,101.973 21,99.5C 19.6667,100.167 18.6667,101.167 18,102.5C 17.3878,99.9683 15.8878,99.1349 13.5,100C 14.5171,101.049 14.6838,102.216 14,103.5C 13.6667,102.833 13.3333,102.167 13,101.5C 12.5774,102.956 11.7441,103.456 10.5,103C 11.3366,101.989 11.67,100.822 11.5,99.5C 9.23405,99.1412 7.40072,99.8078 6,101.5C 5.02552,99.1224 4.35886,99.4557 4,102.5C 3.66667,101.833 3.33333,101.167 3,100.5C 1.9609,101.71 0.794229,102.71 -0.5,103.5C -0.5,96.8333 -0.5,90.1667 -0.5,83.5C 3.38325,63.7335 12.0499,46.4002 25.5,31.5 Z"/></g>
<g><path style="opacity:1" fill="#fefefe" d="M 154.5,78.5 C 162.772,106.258 155.772,129.258 133.5,147.5C 101.723,165.214 74.2229,160.214 51,132.5C 45.8193,123.815 42.6526,114.482 41.5,104.5C 40.6666,73.8387 54.6666,53.3387 83.5,43C 116.12,37.3101 139.787,49.1434 154.5,78.5 Z"/></g>
<g><path style="opacity:1" fill="#2b5ceb" d="M 82.5,80.5 C 93.8382,80.3335 105.172,80.5001 116.5,81C 117,81.5 117.5,82 118,82.5C 118.82,94.0762 118.654,105.576 117.5,117C 111.437,118.126 105.271,118.626 99,118.5C 81.9685,122.676 75.8018,116.176 80.5,99C 80.6667,93.5 80.8333,88 81,82.5C 81.7172,81.9558 82.2172,81.2891 82.5,80.5 Z"/></g>
<g><path style="opacity:0.999" fill="#1f55e5" d="M 196.5,73.5 C 197.257,76.9899 198.257,80.3233 199.5,83.5C 199.5,94.1667 199.5,104.833 199.5,115.5C 197.362,126.045 193.695,136.045 188.5,145.5C 187.469,144.751 186.302,144.085 185,143.5C 183.796,144.471 183.296,145.471 183.5,146.5C 182.808,145.975 182.308,145.308 182,144.5C 180.333,144.5 178.667,144.5 177,144.5C 176.009,145.939 174.676,146.939 173,147.5C 172.667,146.833 172.333,146.167 172,145.5C 170.667,146.833 169.333,146.833 168,145.5C 167.549,147.929 166.715,148.096 165.5,146C 166.706,144.982 166.373,144.482 164.5,144.5C 161.937,144.737 161.937,145.237 164.5,146C 163.584,146.374 162.75,146.874 162,147.5C 160.654,144.751 159.32,144.417 158,146.5C 156.542,145.253 155.042,145.253 153.5,146.5C 151.758,144.027 149.925,144.027 148,146.5C 146.428,144.411 144.595,144.411 142.5,146.5C 139.712,145.04 137.545,145.707 136,148.5C 135.329,147.748 134.496,147.414 133.5,147.5C 155.772,129.258 162.772,106.258 154.5,78.5C 154.119,76.0582 154.786,75.3915 156.5,76.5C 157.333,75.5 158.167,74.5 159,73.5C 160.598,76.9248 162.598,77.2581 165,74.5C 166,75.5 167,76.5 168,77.5C 167.923,76.2624 168.089,75.2624 168.5,74.5C 170.434,74.9005 171.934,75.9005 173,77.5C 174.333,76.8333 175.333,75.8333 176,74.5C 178.043,76.967 180.21,76.967 182.5,74.5C 183.696,74.8457 183.696,75.3457 182.5,76C 183.449,76.6172 184.282,76.4506 185,75.5C 185.667,76.1667 186.333,76.8333 187,77.5C 187.359,74.4557 188.026,74.1224 189,76.5C 190.418,73.999 191.418,74.3323 192,77.5C 193.62,76.9402 195.12,75.6068 196.5,73.5 Z"/></g>
<g><path style="opacity:0.999" fill="#1a51e1" d="M 41.5,104.5 C 42.6526,114.482 45.8193,123.815 51,132.5C 74.2229,160.214 101.723,165.214 133.5,147.5C 134.496,147.414 135.329,147.748 136,148.5C 137.545,145.707 139.712,145.04 142.5,146.5C 144.595,144.411 146.428,144.411 148,146.5C 149.925,144.027 151.758,144.027 153.5,146.5C 155.042,145.253 156.542,145.253 158,146.5C 159.32,144.417 160.654,144.751 162,147.5C 162.75,146.874 163.584,146.374 164.5,146C 161.937,145.237 161.937,144.737 164.5,144.5C 166.373,144.482 166.706,144.982 165.5,146C 166.715,148.096 167.549,147.929 168,145.5C 169.333,146.833 170.667,146.833 172,145.5C 172.333,146.167 172.667,146.833 173,147.5C 174.676,146.939 176.009,145.939 177,144.5C 178.667,144.5 180.333,144.5 182,144.5C 182.308,145.308 182.808,145.975 183.5,146.5C 183.296,145.471 183.796,144.471 185,143.5C 186.302,144.085 187.469,144.751 188.5,145.5C 185.056,153.935 180.056,161.269 173.5,167.5C 173.058,163.153 172.225,162.82 171,166.5C 170.333,163.833 169.667,163.833 169,166.5C 166.937,165.628 164.77,164.962 162.5,164.5C 161.201,165.09 160.368,166.09 160,167.5C 159.667,166.5 159.333,165.5 159,164.5C 158,165.833 157,165.833 156,164.5C 154.796,165.471 154.296,166.471 154.5,167.5C 153.52,166.019 152.353,164.685 151,163.5C 150.667,164.167 150.333,164.833 150,165.5C 146.832,164.32 143.666,164.654 140.5,166.5C 138.261,164.88 136.427,165.213 135,167.5C 134.641,164.456 133.974,164.122 133,166.5C 132.085,165.672 131.419,164.672 131,163.5C 128.912,164.308 126.912,165.308 125,166.5C 124,165.5 123,164.5 122,163.5C 121.667,164.167 121.333,164.833 121,165.5C 119.111,164.911 117.111,164.577 115,164.5C 114.333,168.5 113.667,168.5 113,164.5C 112.667,165.167 112.333,165.833 112,166.5C 110,163.748 108,163.415 106,165.5C 102.992,164.114 101.492,164.781 101.5,167.5C 100.306,164.381 98.8064,164.048 97,166.5C 95.2151,165.76 93.3817,165.093 91.5,164.5C 90.2011,165.09 89.3678,166.09 89,167.5C 88.3333,166.167 87.6667,164.833 87,163.5C 86.6411,166.544 85.9745,166.878 85,164.5C 81.9862,168.527 79.9862,168.527 79,164.5C 76.4082,165.982 74.0749,165.648 72,163.5C 71.6411,166.544 70.9745,166.878 70,164.5C 69.6667,165.167 69.3333,165.833 69,166.5C 66.9365,165.628 64.7698,164.962 62.5,164.5C 61.2011,165.09 60.3678,166.09 60,167.5C 59.6667,166.5 59.3333,165.5 59,164.5C 58,165.833 57,165.833 56,164.5C 54.7964,165.471 54.2964,166.471 54.5,167.5C 53.5197,166.019 52.353,164.685 51,163.5C 50.6667,164.167 50.3333,164.833 50,165.5C 46.8322,164.32 43.6655,164.654 40.5,166.5C 38.2606,164.88 36.4272,165.213 35,167.5C 34.6411,164.456 33.9745,164.122 33,166.5C 32.0853,165.672 31.4186,164.672 31,163.5C 28.6985,164.867 26.1985,165.534 23.5,165.5C 11.1934,150.887 3.19341,134.221 -0.5,115.5C -0.5,111.5 -0.5,107.5 -0.5,103.5C 0.794229,102.71 1.9609,101.71 3,100.5C 3.33333,101.167 3.66667,101.833 4,102.5C 4.35886,99.4557 5.02552,99.1224 6,101.5C 7.40072,99.8078 9.23405,99.1412 11.5,99.5C 11.67,100.822 11.3366,101.989 10.5,103C 11.7441,103.456 12.5774,102.956 13,101.5C 13.3333,102.167 13.6667,102.833 14,103.5C 14.6838,102.216 14.5171,101.049 13.5,100C 15.8878,99.1349 17.3878,99.9683 18,102.5C 18.6667,101.167 19.6667,100.167 21,99.5C 22.925,101.973 24.7583,101.973 26.5,99.5C 26.9976,100.603 27.3309,101.603 27.5,102.5C 29.5945,100.411 31.4279,100.411 33,102.5C 34,101.5 35,100.5 36,99.5C 36.6054,101.481 37.6054,101.815 39,100.5C 39.9344,101.858 40.7677,103.192 41.5,104.5 Z"/></g>
<g><path style="opacity:0.999" fill="#144bda" d="M 173.5,167.5 C 157.66,184.421 138.327,195.088 115.5,199.5C 104.833,199.5 94.1667,199.5 83.5,199.5C 59.6462,194.908 39.6462,183.575 23.5,165.5C 26.1985,165.534 28.6985,164.867 31,163.5C 31.4186,164.672 32.0853,165.672 33,166.5C 33.9745,164.122 34.6411,164.456 35,167.5C 36.4272,165.213 38.2606,164.88 40.5,166.5C 43.6655,164.654 46.8322,164.32 50,165.5C 50.3333,164.833 50.6667,164.167 51,163.5C 52.353,164.685 53.5197,166.019 54.5,167.5C 54.2964,166.471 54.7964,165.471 56,164.5C 57,165.833 58,165.833 59,164.5C 59.3333,165.5 59.6667,166.5 60,167.5C 60.3678,166.09 61.2011,165.09 62.5,164.5C 64.7698,164.962 66.9365,165.628 69,166.5C 69.3333,165.833 69.6667,165.167 70,164.5C 70.9745,166.878 71.6411,166.544 72,163.5C 74.0749,165.648 76.4082,165.982 79,164.5C 79.9862,168.527 81.9862,168.527 85,164.5C 85.9745,166.878 86.6411,166.544 87,163.5C 87.6667,164.833 88.3333,166.167 89,167.5C 89.3678,166.09 90.2011,165.09 91.5,164.5C 93.3817,165.093 95.2151,165.76 97,166.5C 98.8064,164.048 100.306,164.381 101.5,167.5C 101.492,164.781 102.992,164.114 106,165.5C 108,163.415 110,163.748 112,166.5C 112.333,165.833 112.667,165.167 113,164.5C 113.667,168.5 114.333,168.5 115,164.5C 117.111,164.577 119.111,164.911 121,165.5C 121.333,164.833 121.667,164.167 122,163.5C 123,164.5 124,165.5 125,166.5C 126.912,165.308 128.912,164.308 131,163.5C 131.419,164.672 132.085,165.672 133,166.5C 133.974,164.122 134.641,164.456 135,167.5C 136.427,165.213 138.261,164.88 140.5,166.5C 143.666,164.654 146.832,164.32 150,165.5C 150.333,164.833 150.667,164.167 151,163.5C 152.353,164.685 153.52,166.019 154.5,167.5C 154.296,166.471 154.796,165.471 156,164.5C 157,165.833 158,165.833 159,164.5C 159.333,165.5 159.667,166.5 160,167.5C 160.368,166.09 161.201,165.09 162.5,164.5C 164.77,164.962 166.937,165.628 169,166.5C 169.667,163.833 170.333,163.833 171,166.5C 172.225,162.82 173.058,163.153 173.5,167.5 Z"/></g>
</svg>
